HIERARCHY
ROOT pelvis
{
	OFFSET 0.00 0.00 0.00
	CHANNELS 6 Xposition Yposition Zposition Xrotation Yrotation Zrotation
	JOINT lfemur
	{
		OFFSET 0.00000 3.20717 0.00000
		CHANNELS 3 Xrotation Yrotation Zrotation
		JOINT ltibia
		{
			OFFSET 0.00000 0.00000 -15.48450
			CHANNELS 3 Xrotation Yrotation Zrotation
			JOINT lfoot
			{
				OFFSET 0.00000 0.00000 -15.12678
				CHANNELS 3 Xrotation Yrotation Zrotation
				JOINT ltoes
				{
					OFFSET 5.14667 0.00000 -1.70681
					CHANNELS 3 Xrotation Yrotation Zrotation
				}
			}
		}
	}
	JOINT rfemur
	{
		OFFSET 0.00000 -3.20717 0.00000
		CHANNELS 3 Xrotation Yrotation Zrotation
		JOINT rtibia
		{
			OFFSET 0.00000 0.00000 -15.79237
			CHANNELS 3 Xrotation Yrotation Zrotation
			JOINT rfoot
			{
				OFFSET 0.00000 0.00000 -14.63938
				CHANNELS 3 Xrotation Yrotation Zrotation
				JOINT rtoes
				{
					OFFSET 4.13531 0.00000 -2.28367
					CHANNELS 3 Xrotation Yrotation Zrotation
				}
			}
		}
	}
	JOINT lowerback
	{
		OFFSET -1.96850 0.00000 5.25621
		CHANNELS 3 Xrotation Yrotation Zrotation
		JOINT upperback
		{
			OFFSET -0.07958 0.00000 5.71078
			CHANNELS 3 Xrotation Yrotation Zrotation
			JOINT lclavicle
			{
				OFFSET 0.00000 0.00000 8.25148
				CHANNELS 3 Xrotation Yrotation Zrotation
				JOINT lhumerus
				{
					OFFSET 0.00000 5.37672 -2.47600
					CHANNELS 3 Xrotation Yrotation Zrotation
					JOINT lradius
					{
						OFFSET 0.00000 0.00000 -11.21411
						CHANNELS 3 Xrotation Yrotation Zrotation
						JOINT lhand
						{
							OFFSET 0.00000 0.00000 -8.03975
							CHANNELS 3 Xrotation Yrotation Zrotation
						}
					}
				}
			}
			JOINT rclavicle
			{
				OFFSET 0.00000 0.00000 8.25148
				CHANNELS 3 Xrotation Yrotation Zrotation
				JOINT rhumerus
				{
					OFFSET 0.00000 -5.17578 -2.36445
					CHANNELS 3 Xrotation Yrotation Zrotation
					JOINT rradius
					{
						OFFSET 0.00000 0.00000 -11.62006
						CHANNELS 3 Xrotation Yrotation Zrotation
						JOINT rhand
						{
							OFFSET 0.00000 0.00000 -7.95557
							CHANNELS 3 Xrotation Yrotation Zrotation
						}
					}
				}
			}
			JOINT LowerNeck
			{
				OFFSET 0.00000 0.00000 8.25148
				CHANNELS 3 Xrotation Yrotation Zrotation
				JOINT Neck
				{
					OFFSET -0.20651 -0.19585 3.46745
					CHANNELS 3 Xrotation Yrotation Zrotation
				}
			}
		}
	}
}
MOTION
Frames: 15
Frame Time: 0.008342
 12.8122 -14.3178 32.3670 2.0695 -0.1643 -93.6871 -0.4870 -13.0477 8.1189 0.0000 19.7750 -1.0543 1.5953 -6.3444 6.1058 0.0000 -19.3081 -0.0000 2.6575 5.1466 -6.1971 0.0000 8.8813 -4.4573 -0.4106 -10.2173 -1.5811 0.0000 -9.8851 0.0000 -2.9839 -17.5592 1.9685 3.0624 38.2774 3.1779 2.3944 -0.0000 0.1547 164.5909 -46.9540 120.2378 0.0000 -29.5790 15.6839 -67.9205 -42.9828 -0.0000 -4.4348 -0.0000 -3.7428 -171.7946 -47.0461 -124.0610 0.0000 -33.4322 37.2124 13.5054 -32.0041 -0.0000 -3.7818 -31.1646 -18.9805 9.1607 -11.6848 25.2278
 12.7718 -14.2455 32.3523 2.2864 -0.2066 -93.4072 -0.4416 -13.7783 7.9335 0.0000 20.4664 -0.9997 1.5733 -6.4453 6.0227 0.0000 -19.3428 0.0000 2.7835 4.9654 -6.3964 0.0000 8.5881 -4.4905 -0.4619 -10.2015 -1.7788 -0.0000 -9.7706 -0.0000 -2.9860 -17.6261 1.9919 2.9393 37.8486 3.3431 3.1228 -0.0000 -1.1422 166.0119 -45.7555 121.9833 -0.0000 -22.6754 33.0328 -109.0166 -51.0271 -0.0000 -4.3817 0.0000 -3.5167 -171.3994 -47.2596 -123.4267 -0.0000 -33.8100 37.4520 13.1521 -32.1844 0.0000 -3.4190 -30.6786 -18.9103 9.1293 -11.8090 25.8218
 12.7323 -14.1684 32.3445 2.2793 -0.2860 -93.1249 -0.4808 -14.2753 7.6569 0.0000 21.1031 -0.8692 1.5604 -6.4378 5.9731 0.0000 -19.2899 -0.0000 2.8764 4.9510 -6.4480 0.0000 8.3433 -4.7584 -0.5085 -10.0741 -1.9577 0.0000 -9.8048 0.0000 -2.9544 -17.5351 2.0865 2.8629 37.9579 3.4056 3.4969 0.0000 -1.3274 166.0947 -45.4331 121.8011 -0.0000 -22.9539 34.3974 -110.1071 -51.1010 -0.0000 -4.4850 0.0000 -3.5238 -171.4286 -46.9962 -123.3835 -0.0000 -33.8925 37.7216 11.9294 -32.4880 0.0000 -3.4001 -30.3342 -18.8778 9.2377 -12.5243 26.2130
 12.6898 -14.0980 32.3352 2.3006 -0.3642 -92.8075 -0.4533 -14.8268 7.6150 0.0000 21.8231 -1.1312 1.5663 -6.4532 5.9959 0.0000 -19.2877 -0.0000 2.9821 4.9526 -6.5189 0.0000 8.0342 -5.0376 -0.5589 -9.9844 -2.1516 -0.0000 -9.8001 -0.0000 -2.9678 -17.4415 2.1346 2.7707 38.0177 3.5042 3.8419 -0.0000 -1.4103 166.1865 -45.1841 121.8866 -0.0000 -23.4967 35.1136 -110.2602 -50.7643 -0.0000 -4.4485 0.0000 -3.5532 -171.5138 -46.7228 -123.4706 -0.0000 -34.0310 38.1233 11.4234 -32.9439 0.0000 -3.1018 -30.2617 -18.8356 9.2337 -12.9409 26.9342
 12.6479 -14.0216 32.3245 2.4312 -0.4054 -92.4042 -0.3449 -15.5225 7.8391 0.0000 22.6089 -1.7322 1.5697 -6.5078 6.0100 -0.0000 -19.3139 -0.0000 3.1458 4.8678 -6.6489 -0.0000 7.6857 -5.3086 -0.6062 -9.9390 -2.3338 0.0000 -9.5059 -0.0000 -3.0070 -17.3882 2.0472 2.8324 38.0080 3.5101 3.6932 -0.0000 -1.3188 166.6088 -44.7847 121.0814 -0.0000 -23.8178 36.3521 -109.0804 -49.8289 -0.0000 -4.4095 -0.0000 -3.6786 -171.9428 -46.4695 -123.7681 -0.0000 -34.1492 37.8024 11.7586 -33.1153 0.0000 -3.4747 -30.6044 -19.0008 9.5724 -12.8263 27.6899
 12.6055 -13.9473 32.3160 2.4705 -0.4546 -92.0723 -0.3461 -15.9698 7.4920 0.0000 23.0991 -1.8274 1.5722 -6.4894 6.0192 0.0000 -19.4040 0.0000 3.3020 4.7765 -6.5620 -0.0000 7.4911 -5.8061 -0.6602 -9.7810 -2.5412 0.0000 -9.5698 0.0000 -3.0058 -17.3321 2.1066 2.7953 38.0521 3.5686 4.0124 0.0000 -1.4352 166.7186 -44.5925 121.5308 0.0000 -24.1017 36.3036 -108.9863 -48.7560 -0.0000 -4.4744 0.0000 -3.5471 -171.7441 -46.2800 -123.6894 -0.0000 -34.3142 38.5102 10.8844 -33.2656 0.0000 -3.2260 -30.4432 -18.7967 9.6493 -13.2222 28.5070
 12.5694 -13.8768 32.3104 2.4889 -0.5122 -91.7468 -0.3645 -16.3226 7.3084 0.0000 23.4562 -2.0717 1.5932 -6.5153 6.1003 0.0000 -19.3802 0.0000 3.4324 4.7109 -6.6026 0.0000 7.3039 -6.1992 -0.7191 -9.7497 -2.7678 0.0000 -9.3998 0.0000 -2.9652 -17.2475 2.1959 2.7861 38.0885 3.6171 4.1630 -0.0000 -1.4888 166.9985 -44.3925 121.7916 0.0000 -24.2493 36.4885 -108.3192 -47.7903 -0.0000 -4.5112 -0.0000 -3.5107 -171.7080 -46.0523 -123.6300 0.0000 -34.4775 38.2017 11.2583 -33.7413 0.0000 -3.4394 -30.4258 -18.5805 10.0185 -13.4269 29.1897
 12.5306 -13.8103 32.3037 2.5105 -0.5722 -91.4072 -0.3206 -16.7235 7.3643 0.0000 23.9533 -2.5261 1.6018 -6.6061 6.1350 -0.0000 -19.3693 -0.0000 3.5578 4.6470 -6.6751 -0.0000 7.1094 -6.5560 -0.7650 -9.6834 -2.9443 0.0000 -9.3357 -0.0000 -2.9482 -17.1646 2.2499 2.7751 38.1020 3.6617 4.2474 -0.0000 -1.5789 167.2051 -44.1844 122.0262 -0.0000 -24.4378 36.6010 -107.8519 -46.8119 -0.0000 -4.5206 -0.0000 -3.4873 -171.6874 -45.8812 -123.5410 -0.0000 -35.0101 37.1167 12.4280 -33.0453 0.0000 -3.2655 -30.2605 -18.7690 10.2689 -13.6417 30.7894
 12.4895 -13.7282 32.2914 2.8222 -0.5272 -90.8585 -0.1553 -17.6044 7.4704 0.0000 24.7605 -3.3923 1.6621 -6.8172 6.3702 0.0000 -19.3295 0.0000 3.8049 4.3177 -6.9512 0.0000 6.8141 -6.6888 -0.8583 -9.4105 -3.3023 0.0000 -9.4102 0.0000 -2.9903 -17.1690 1.9819 2.8949 37.8199 3.7462 4.0322 -0.0000 -1.3890 167.9362 -44.2040 122.9824 -0.0000 -24.3760 36.6412 -107.4641 -45.8403 -0.0000 -4.4662 -0.0000 -3.5342 -171.9936 -45.7943 -123.4807 -0.0000 -34.5976 38.4074 9.8687 -33.4060 0.0000 -3.6709 -30.4662 -18.7769 10.6757 -13.3002 31.7835
 12.4512 -13.6639 32.2893 2.8257 -0.5730 -90.5575 -0.1801 -17.8040 7.2139 0.0000 24.9335 -3.4575 1.6566 -7.0728 6.3531 0.0000 -19.3656 -0.0000 3.9175 4.2032 -6.8867 0.0000 6.7991 -6.9609 -0.9320 -9.4406 -3.5866 0.0000 -9.1423 -0.0000 -2.9075 -17.1375 2.1194 2.8769 37.9317 3.8060 4.0771 -0.0000 -1.4997 168.1348 -44.0225 123.1127 -0.0000 -24.4977 36.9920 -107.3934 -45.6078 -0.0000 -4.4583 -0.0000 -3.4106 -171.8661 -45.5422 -123.4536 -0.0000 -34.9755 37.6451 11.8266 -33.1614 0.0000 -3.9660 -30.4612 -18.4884 11.1724 -13.3342 32.7113
 12.4147 -13.5778 32.2758 3.2557 -0.4961 -90.0332 -0.0453 -18.7332 7.1592 0.0000 25.6460 -4.1950 1.7451 -7.5191 6.7011 0.0000 -19.3725 0.0000 4.1301 3.6100 -7.2029 0.0000 6.8257 -7.2005 -0.9387 -9.4363 -3.6122 0.0000 -9.0406 0.0000 -2.7925 -17.4756 1.8920 2.6915 38.0064 4.1243 4.1411 -0.0000 -1.4485 168.7102 -43.9161 124.0255 0.0000 -24.5353 36.7956 -107.0645 -45.3191 -0.0000 -4.3326 0.0000 -3.0582 -170.9891 -44.9635 -121.0325 -0.0000 -35.6287 35.9098 11.4225 -31.8900 -0.0000 -3.4835 -30.4756 -18.3777 11.1113 -13.5376 34.3649
 12.3894 -13.5253 32.2653 3.2489 -0.6308 -89.2176 -0.3993 -19.0468 6.1744 0.0000 25.9815 -1.0889 0.9816 -7.9170 3.7666 0.0000 -20.3990 -0.0000 4.0830 3.4849 -8.4131 0.0000 6.8745 -7.2625 -0.8503 -9.0699 -3.2694 -0.0000 -11.1389 -0.0000 -3.2847 -17.1797 1.5498 3.1689 37.4265 2.3655 3.6921 0.0000 -0.4617 166.7929 -43.3463 118.5176 -0.0000 -27.8105 67.3284 -94.3748 -5.2220 -0.0000 -4.4131 -0.0000 -0.6523 -169.8696 -44.7452 -118.1406 0.0000 -35.6824 35.5432 8.1030 -30.4363 0.0000 -3.2683 -29.8921 -11.2583 10.5841 -14.6333 30.0868
 12.3616 -13.4751 32.2633 3.2212 -0.7147 -88.9102 -0.4442 -19.2438 6.0223 0.0000 26.4027 -1.6852 1.0616 -8.6484 4.0802 0.0000 -20.3339 0.0000 4.0834 3.4285 -8.6588 0.0000 6.8694 -7.1140 -0.9140 -9.0811 -3.5147 -0.0000 -10.8345 -0.0000 -3.1850 -17.0978 1.7048 3.0848 37.5205 2.5430 3.7135 -0.0000 -0.4579 167.0562 -43.3010 118.4487 -0.0000 -27.9880 66.7552 -93.4674 -7.6190 -0.0000 -4.3454 0.0000 -0.8469 -169.9777 -44.4849 -118.3258 -0.0000 -35.7622 34.9841 9.8200 -30.6397 0.0000 -3.3220 -29.8871 -11.5822 11.0398 -14.6547 32.1459
 12.3431 -13.4240 32.2599 3.2396 -0.8088 -88.5702 -0.5649 -19.4655 5.7079 0.0000 26.8495 -2.4136 1.1846 -9.4875 4.5605 0.0000 -20.3172 0.0000 4.0464 3.2862 -8.9768 0.0000 6.9356 -7.0218 -0.9526 -9.0572 -3.6635 0.0000 -10.8413 -0.0000 -3.0577 -17.0392 1.7873 2.9881 37.6154 2.8003 3.7547 -0.0000 -0.7149 166.8384 -43.0764 117.5069 -0.0000 -28.3183 67.5376 -93.5105 -9.3126 -0.0000 -4.5570 0.0000 -1.2190 -170.4474 -44.4121 -118.9905 -0.0000 -34.5865 37.4305 6.2982 -31.3878 0.0000 -3.6367 -29.9302 -11.9070 11.6415 -14.6011 34.1781
 12.3182 -13.3803 32.2538 3.2189 -0.8578 -87.7941 -0.8471 -19.6934 4.6721 0.0000 27.2836 -0.9696 0.8494 -10.5854 3.2737 0.0000 -20.4875 0.0000 4.0612 3.1982 -10.1169 0.0000 7.0110 -6.9782 -0.8733 -8.8691 -3.3568 -0.0000 -11.7659 -0.0000 -3.4471 -16.8525 1.4745 3.5154 37.1673 2.0558 3.4327 -0.0000 -0.4498 166.1620 -43.0850 116.3247 0.0000 -29.9478 79.9196 -87.7468 8.2613 -0.0000 -4.7378 0.0000 0.0836 -169.3167 -44.2643 -116.4095 0.0000 -34.7922 36.6368 4.7236 -30.1939 -0.0000 -3.7906 -29.0435 -8.9777 11.7050 -15.4105 33.4659
